<?xml version="1.0" encoding="utf-8"?>
<svg viewBox="0 0 500 500" xmlns="http://www.w3.org/2000/svg">
  <path fill="#00578B" opacity="1.000000" stroke="none" d="M 369.386 469.099 C 369.223 469.149 369.06 469.198 368.246 469.281 C 365.233 469.956 362.897 470.735 360.502 471.215 C 350.473 473.225 340.426 475.146 330.386 477.1 C 328.96 477.144 327.533 477.189 325.742 476.831 C 335.106 467.455 345.16 458.804 354.48 449.423 C 366.107 437.722 375.017 423.896 382.137 409.094 C 389.973 392.803 394.995 375.639 397.601 357.602 C 400.001 340.992 399.766 324.532 397.035 308.208 C 392.499 281.104 382.646 256.044 365.32 234.331 C 361.918 230.068 358.251 226.017 354.707 221.868 C 354.213 222.26 353.72 222.652 353.226 223.044 C 356.096 227.122 359.187 231.064 361.784 235.309 C 365.798 241.87 370.221 248.336 373.084 255.404 C 375.949 262.477 376.909 270.299 379.088 277.68 C 380.629 282.897 383.007 287.863 384.65 293.055 C 386.233 298.053 387.352 303.198 388.675 308.278 C 388.183 308.484 387.691 308.69 387.199 308.897 C 384.113 305.219 381.026 301.541 377.709 297.589 C 377.257 303.922 376.842 309.728 376.428 315.535 C 375.889 315.628 375.35 315.722 374.811 315.815 C 372.79 309.575 370.768 303.336 368.827 297.347 C 367.671 303.695 366.487 310.19 365.303 316.685 C 364.874 316.685 364.445 316.685 364.016 316.685 C 362.875 312.29 361.735 307.895 360.406 302.776 C 358.364 308.378 356.66 313.054 354.956 317.73 C 354.519 317.691 354.082 317.652 353.646 317.612 C 353.063 310.125 352.48 302.638 351.865 294.738 C 349.176 299.442 346.783 303.628 344.39 307.814 C 343.689 307.596 342.988 307.378 342.286 307.16 C 344.599 293.322 346.912 279.484 349.279 265.32 C 328.479 260.012 312.103 247.116 298.266 230.072 C 282.744 239.603 267.446 248.995 252.207 258.351 C 262.969 280.615 267.838 302.886 261.428 326.689 C 261.03 328.168 261.433 330.4 262.352 331.602 C 265.864 336.194 269.952 340.348 273.428 344.964 C 277.803 350.775 281.789 356.878 285.942 362.855 C 285.483 363.268 285.024 363.681 284.565 364.094 C 280.66 361.617 276.756 359.14 272.175 356.234 C 273.509 362.652 274.666 368.219 275.824 373.786 C 275.424 373.93 275.024 374.073 274.624 374.216 C 271.046 369.437 267.468 364.658 263.396 359.218 C 264.216 365.905 264.92 371.638 265.623 377.372 C 265.117 377.529 264.61 377.687 264.104 377.844 C 261.685 373.909 259.265 369.974 256.846 366.039 C 256.548 366.11 256.249 366.181 255.951 366.252 C 255.951 371.34 255.951 376.429 255.951 381.518 C 255.569 381.58 255.186 381.642 254.803 381.705 C 251.951 375.047 249.099 368.39 245.886 360.892 C 245.226 364.482 244.776 366.907 244.336 369.334 C 243.895 371.76 243.464 374.188 243.028 376.616 C 242.362 376.642 241.696 376.668 241.031 376.695 C 239.46 366.206 237.981 355.702 236.265 345.237 C 235.748 342.089 234.915 338.898 233.632 335.99 C 230.689 329.32 227.412 322.796 224.211 316.241 C 219.809 307.226 215.351 298.238 210.624 288.643 C 199.496 297.544 188.994 305.945 177.958 314.773 C 180.836 315.811 182.825 316.601 184.859 317.249 C 196.752 321.038 207.166 327.215 215.831 336.261 C 224.665 345.485 230.935 356.241 235.322 368.2 C 243.648 390.893 249.803 413.849 246.394 438.438 C 243.789 457.232 232.728 469.935 214.272 474.229 C 209.354 475.373 204.35 476.153 199.386 477.1 C 191.982 477.145 184.579 477.19 176.428 476.874 C 165.567 475.087 155.356 474.142 145.361 472.125 C 128.424 468.705 112.797 462.108 99.859 450.258 C 82.124 434.012 75.54 412.832 74.483 389.723 C 73.939 377.82 75.85 365.976 80.963 354.929 C 82.388 351.85 81.701 349.373 80.118 346.226 C 75.688 337.416 71.445 328.399 68.354 319.058 C 65.367 310.032 63.905 300.5 61.774 291.19 C 58.599 303.184 55.622 315.247 54.534 327.477 C 53.265 341.744 53.821 356.164 53.241 370.504 C 52.934 378.084 52.21 385.683 51.09 393.186 C 50.144 399.519 48.355 405.726 46.939 411.989 C 46.496 411.949 46.054 411.909 45.612 411.869 C 44.712 406.968 43.812 402.068 42.766 396.374 C 39.572 403.92 36.629 410.871 33.687 417.823 C 33.173 417.688 32.66 417.552 32.146 417.417 C 32.146 412.329 32.146 407.241 32.146 401.308 C 29.148 406.06 26.724 409.9 24.301 413.741 C 23.895 413.619 23.489 413.497 23.084 413.375 C 23.765 407.589 24.447 401.804 25.246 395.017 C 21.032 400.485 17.512 405.053 13.992 409.622 C 13.602 409.434 13.213 409.245 12.824 409.057 C 13.939 403.604 15.054 398.15 16.292 392.094 C 11.442 394.823 7.456 397.065 3.47 399.308 C 3.425 398.832 3.379 398.357 3.675 397.347 C 11.412 386.595 18.809 376.377 26.408 365.879 C 19.167 356.713 13.716 345.702 10.588 333.599 C 9.289 328.574 8.492 323.418 7.468 318.322 C 7.422 311.252 7.377 304.182 7.689 296.38 C 9.696 280.334 14.205 265.977 22.123 252.697 C 32.046 236.056 45.205 222.91 63.087 215.063 C 66.311 213.649 67.574 211.719 68.298 208.69 C 76.178 175.697 90.608 145.904 111.671 119.27 C 126.948 99.952 145.134 84.066 166.122 71.229 C 171.638 67.855 177.779 65.44 181.514 59.242 C 185.491 52.641 190.208 46.294 195.545 40.743 C 207.444 28.363 221.993 19.794 238.271 14.483 C 245.391 12.161 252.909 11.06 260.247 9.404 C 266.983 9.358 273.72 9.313 281.188 9.626 C 296.614 11.672 310.352 15.586 320.384 26.416 C 332.055 22.488 343.32 18.697 354.585 14.905 C 354.885 15.469 355.184 16.032 355.484 16.596 C 351.971 19.587 348.458 22.579 344.243 26.169 C 350.699 26.758 356.361 27.275 362.023 27.792 C 362.058 28.209 362.094 28.626 362.129 29.043 C 356.389 31.089 350.649 33.135 344.088 35.474 C 351.039 36.676 356.979 37.703 362.919 38.73 C 362.906 39.265 362.893 39.799 362.88 40.333 C 357.965 41.455 353.05 42.578 348.248 43.674 C 353.389 45.426 358.662 47.223 363.934 49.02 C 363.842 49.356 363.75 49.693 363.658 50.03 C 360.85 50.575 358.043 51.121 354.156 51.876 C 359.455 53.511 363.808 54.853 368.161 56.196 C 368.679 56.552 369.196 56.908 370.262 57.609 C 379.445 62.105 388.559 65.5 396.602 70.588 C 408.147 77.893 419.783 85.488 429.755 94.715 C 439.243 103.496 446.93 114.311 454.898 124.626 C 466.849 140.099 477.131 156.644 485.028 174.604 C 493.305 193.43 499.348 212.905 502.34 233.282 C 503.313 239.911 504.224 246.549 505.163 253.182 C 505.208 264.919 505.253 276.656 504.938 289.14 C 503.402 308.93 499.276 327.367 493.191 345.405 C 491.881 349.29 490.643 353.199 489.372 357.097 C 489.016 357.615 488.66 358.132 487.953 359.186 C 486.703 361.847 485.919 364.031 484.886 366.09 C 477.236 381.328 468.504 395.813 457.353 408.867 C 439.832 429.38 419.576 446.343 395.278 458.177 C 386.869 462.273 378.029 465.484 369.386 469.099 M 179.382 99.754 C 179.685 99.9 179.989 100.046 180.578 100.791 C 182.18 101.956 183.782 103.122 185.62 104.905 C 195.247 112.035 204.836 119.216 214.508 126.283 C 232.801 139.65 249.898 154.147 259.638 175.317 C 264.289 185.428 268.357 195.806 272.874 205.982 C 274.593 209.853 276.135 215.39 281.111 214.692 C 284.236 214.254 287.844 210.38 289.46 207.157 C 300.76 184.62 308.173 160.87 308.072 135.437 C 308.004 118.241 301.196 104.268 284.742 96.751 C 278.267 93.793 271.544 90.712 264.619 89.526 C 242.211 85.692 219.703 82.328 197.135 79.608 C 189.162 78.646 180.856 79.634 172.79 80.53 C 167.064 81.167 165.608 84.836 169.113 89.311 C 172.022 93.024 175.891 95.985 179.316 99.246 C 179.316 99.246 179.281 99.23 179.382 99.754 M 199.38 362.105 C 185.642 343.696 166.71 335.074 144.314 334.532 C 121.11 333.971 104.048 348.199 101.628 370.191 C 99.225 392.015 104.929 411.75 119.768 428.137 C 114.657 429.688 111.524 434.074 112.512 438.293 C 113.579 442.849 118.837 446.31 123.242 445.061 C 127.725 443.789 130.051 440.541 131.202 436.127 C 146.769 444.416 163.094 450.552 180.818 451.69 C 200.409 452.948 210.771 446.791 214.584 431.054 C 216.003 425.198 216.125 418.826 215.708 412.768 C 214.718 398.387 210.619 384.687 205.831 371.556 C 211.154 372.675 215.337 370.582 216.927 366.003 C 218.41 361.732 216.148 356.974 211.709 355.03 C 206.682 352.827 201.72 355.98 199.38 362.105 M 189.208 243.875 C 186.49 241.427 183.912 238.797 181.031 236.56 C 148.001 210.917 101.327 216.711 77.742 249.51 C 70.142 260.079 65.622 271.743 68.35 285.105 C 69.884 292.62 74.436 296.571 82.037 296.232 C 87.622 295.983 93.242 294.889 98.693 293.546 C 113.037 290.012 127.121 284.378 142.129 285.436 C 156.351 286.438 170.5 288.711 184.625 290.805 C 198.319 292.836 206.155 285.002 203.852 271.407 C 202.057 260.805 196.681 252.208 189.208 243.875 M 105.623 163.027 C 102.676 164.568 99.414 165.714 96.864 167.752 C 93.755 170.236 91.244 173.47 88.475 176.379 C 91.726 178.947 94.602 182.549 98.298 183.884 C 108.28 187.487 118.538 190.396 128.815 193.091 C 153.256 199.502 176.02 208.93 194.752 226.655 C 202.709 234.185 211.257 241.129 219.882 247.9 C 223.782 250.963 228.804 253.52 233.721 250.621 C 238.489 247.811 238.343 242.208 237.917 237.53 C 235.681 212.958 229.511 189.544 217.241 167.853 C 204.98 146.179 187.264 140.775 164.424 143.932 C 144.013 146.754 124.924 154.138 105.623 163.027 M 318.515 92.561 C 328.368 109.692 336.716 127.348 337.942 147.536 C 338.688 159.809 339.348 172.092 340.408 184.339 C 340.868 189.65 341.89 195.554 347.412 197.852 C 353.293 200.299 357.555 195.961 361.196 192.052 C 378 174.008 390.714 153.56 397.009 129.492 C 400.248 117.105 398.412 105.271 389.981 95.711 C 383.693 88.582 376.325 81.963 368.316 76.886 C 350.728 65.736 332 56.61 311.681 51.394 C 308.432 50.56 304.715 51.547 301.214 51.693 C 301.581 55.482 300.945 59.756 302.503 62.968 C 307.284 72.83 312.906 82.285 318.515 92.561 M 424.168 224.632 C 430.495 221.692 437.083 219.199 443.093 215.712 C 453.401 209.732 459.468 200.445 460.203 188.519 C 461.503 167.414 455.868 147.649 446.992 128.746 C 444.092 122.571 440.358 122.478 437.011 128.47 C 434.187 133.527 431.75 138.899 429.911 144.389 C 421.498 169.501 408.785 191.733 388.225 209.003 C 384.8 211.881 381.383 215.056 378.958 218.748 C 377.013 221.709 375.175 226.042 375.989 229.031 C 376.488 230.862 382.276 232.611 385.348 232.147 C 398.121 230.217 410.766 227.432 424.168 224.632 M 468.615 309.197 C 455.388 315.668 442.075 315.803 428.701 309.691 C 422.508 306.861 416.38 303.888 410.146 301.155 C 408.923 300.619 407.347 300.89 405.934 300.788 C 405.88 302.363 405.619 303.968 405.841 305.502 C 405.999 306.596 406.662 307.704 407.347 308.621 C 417.285 321.914 426.795 335.569 437.395 348.315 C 444.991 357.448 450.211 357.496 457.923 348.545 C 470.705 333.709 482.617 318.119 494.759 302.739 C 496.284 300.807 496.985 298.225 498.068 295.945 C 497.66 295.508 497.253 295.071 496.846 294.633 C 487.669 299.389 478.493 304.144 468.615 309.197 M 471.05 254.482 C 479.25 241.997 488.494 230.089 493.037 215.315 C 490.537 215.543 488.494 216.126 486.861 217.285 C 481.703 220.943 476.482 224.561 471.673 228.65 C 449.688 247.344 425.105 258.688 395.497 256.406 C 394.04 256.293 392.522 256.668 391.062 256.964 C 387.638 257.66 387.471 259.494 389.553 261.869 C 390.425 262.862 391.42 263.801 392.512 264.537 C 405.134 273.041 418.589 279.921 433.092 284.565 C 439.741 286.694 446.135 285.802 450.826 280.097 C 457.581 271.88 464.04 263.419 471.05 254.482 M 454.477 395.936 C 458.236 393.859 461.994 391.782 465.752 389.705 C 465.553 389.168 465.354 388.63 465.155 388.092 C 463.42 387.843 461.691 387.435 459.95 387.377 C 455.797 387.239 451.638 387.251 447.482 387.23 C 432.493 387.154 420.748 381.54 413.742 367.659 C 411.948 364.105 409.965 360.638 407.891 357.239 C 407.369 356.384 406.09 355.378 405.293 355.481 C 404.526 355.579 403.792 356.952 403.306 357.899 C 402.862 358.763 402.537 359.814 402.56 360.772 C 402.909 375.033 402.858 389.326 403.915 403.536 C 404.462 410.896 407.787 412.751 415.002 410.357 C 428.054 406.027 440.864 400.97 454.477 395.936 M 376.583 448.94 C 378.632 449.91 380.866 451.973 382.698 451.663 C 390.704 450.309 398.605 448.314 406.514 446.426 C 407.899 446.095 409.14 445.158 410.752 444.348 C 403.496 442.062 396.069 441.387 390.885 437.622 C 385.708 433.863 382.778 427.011 378.528 421.044 C 375.381 430.201 376.402 439.187 376.583 448.94 M 350.865 219.795 C 350.977 219.558 351.123 219.329 351.183 219.08 C 351.202 219 350.995 218.866 350.892 218.757 C 350.773 219 350.654 219.243 350.865 219.795 Z"/>
  <path fill="#00578B" opacity="1.000000" stroke="none" d="M 370.602 57.678 C 415.189 57.403 503.313 239.911 502.34 233.282 C 499.348 212.905 493.305 193.43 485.028 174.604 C 477.131 156.644 466.849 140.099 454.898 124.626 C 446.93 114.311 439.243 103.496 429.755 94.715 C 419.783 85.488 408.147 77.893 396.602 70.588 C 388.559 65.5 379.445 62.105 370.602 57.678 Z"/>
  <path fill="#D6943C" opacity="1.000000" stroke="none" d="M 120.532 427.962 C 104.929 411.75 99.225 392.015 101.628 370.191 C 104.048 348.199 121.11 333.971 144.314 334.532 C 166.71 335.074 185.642 343.696 199.635 362.714 C 201.615 366.022 203.339 368.721 205.063 371.419 C 210.619 384.687 214.718 398.387 215.708 412.768 C 216.125 418.826 216.003 425.198 214.584 431.054 C 210.771 446.791 200.409 452.948 180.818 451.69 C 163.094 450.552 146.769 444.416 130.743 435.71 C 128.762 430.55 125.818 427.699 120.532 427.962 Z"/>
  <path fill="#D6943C" opacity="1.000000" stroke="none" d="M 189.458 244.129 C 196.681 252.208 202.057 260.805 203.852 271.407 C 206.155 285.002 198.319 292.836 184.625 290.805 C 170.5 288.711 156.351 286.438 142.129 285.436 C 127.121 284.378 113.037 290.012 98.693 293.546 C 93.242 294.889 87.622 295.983 82.037 296.232 C 74.436 296.571 69.884 292.62 68.35 285.105 C 65.622 271.743 70.142 260.079 77.742 249.51 C 101.327 216.711 148.001 210.917 181.031 236.56 C 183.912 238.797 186.49 241.427 189.458 244.129 M 148.414 262.759 C 153.068 256.785 153.61 250.313 150.415 243.588 C 147.803 238.089 143.37 234.775 137.225 234.297 C 128.981 233.655 122.564 238.001 119.97 245.682 C 117.32 253.527 120.117 262.003 126.781 266.325 C 133.776 270.861 141.075 269.827 148.414 262.759 M 113.256 268.473 C 113.774 267.622 114.422 266.823 114.79 265.911 C 117.604 258.937 114.169 250.572 107.695 248.523 C 100.993 246.402 93.94 250.529 92.409 257.469 C 91.158 263.141 93.601 268.994 98.334 271.661 C 103.19 274.398 107.657 273.605 113.256 268.473 M 177.33 255.183 C 172.736 249.15 167.055 247.699 161.427 251.122 C 156.622 254.045 154.853 259.782 157.145 265.009 C 159.463 270.297 165.683 272.936 171.356 271.039 C 177.351 269.033 179.664 263.504 177.33 255.183 M 194.467 280.804 C 195.469 274.87 192.854 270.665 187.519 269.633 C 183.133 268.784 178.321 272.073 177.418 276.537 C 176.454 281.3 179.527 285.939 184.583 286.806 C 189.036 287.569 192.288 285.595 194.467 280.804 M 79.209 286.093 C 85.414 287.912 90 285.838 91.45 280.556 C 92.786 275.689 90.208 271.156 85.18 269.882 C 80.969 268.815 77.665 270.416 75.449 274.038 C 73.02 278.007 74.08 281.736 79.209 286.093 Z"/>
  <path fill="#D6943C" opacity="1.000000" stroke="none" d="M 179.334 99.279 C 175.891 95.985 172.022 93.024 169.113 89.311 C 165.608 84.836 167.064 81.167 172.79 80.53 C 180.856 79.634 189.162 78.646 197.135 79.608 C 219.703 82.328 242.211 85.692 264.619 89.526 C 271.544 90.712 278.267 93.793 284.742 96.751 C 301.196 104.268 308.004 118.241 308.072 135.437 C 308.173 160.87 300.76 184.62 289.46 207.157 C 287.844 210.38 284.236 214.254 281.111 214.692 C 276.135 215.39 274.593 209.853 272.874 205.982 C 268.357 195.806 264.289 185.428 259.638 175.317 C 249.898 154.147 232.801 139.65 214.508 126.283 C 204.836 119.216 195.247 112.035 185.953 104.582 C 188.112 104.344 189.942 104.541 191.765 104.492 C 199.26 104.294 203.956 98.967 203.424 91.357 C 202.974 84.939 196.252 79.583 189.731 80.448 C 182.314 81.432 177.345 87.99 178.707 94.953 C 178.987 96.381 179.129 97.836 179.334 99.279 M 251.116 126.771 C 252.939 134.874 258.347 139.264 266.184 140.697 C 275.457 142.393 283.266 139.259 289.28 132.182 C 292.917 127.901 294.936 122.803 293.769 116.968 C 291.597 106.11 283.218 100.906 270.454 102.119 C 261.428 102.977 248.672 112.524 251.116 126.771 M 220.945 92.08 C 218.724 94.678 215.867 96.968 214.423 99.944 C 211.896 105.152 213.873 111.514 218.297 115.266 C 223.759 119.898 232.24 120.905 238.408 117.507 C 243.615 114.638 246.607 110.347 246.423 104.176 C 246.245 98.218 243.137 94.054 238.012 91.601 C 232.657 89.039 227.059 89.284 220.945 92.08 M 270.295 155.154 C 268.131 161.688 269.247 167.041 273.525 170.652 C 278.377 174.747 284.62 175.404 290.286 172.416 C 295.467 169.683 298.021 164.715 297.312 158.749 C 296.679 153.428 292.183 148.579 286.793 147.407 C 280.153 145.963 274.689 148.34 270.295 155.154 M 292.262 196.514 C 294.953 190.839 294.354 185.898 290.559 182.467 C 287.501 179.702 281.648 179.075 277.956 181.135 C 273.874 183.413 272.2 187.109 272.523 191.543 C 272.837 195.857 275.258 199.069 279.345 200.558 C 284.192 202.324 288.484 201.239 292.262 196.514 Z"/>
  <path fill="#D6943C" opacity="1.000000" stroke="none" d="M 105.947 162.841 C 124.924 154.138 144.013 146.754 164.424 143.932 C 187.264 140.775 204.98 146.179 217.241 167.853 C 229.511 189.544 235.681 212.958 237.917 237.53 C 238.343 242.208 238.489 247.811 233.721 250.621 C 228.804 253.52 223.782 250.963 219.882 247.9 C 211.257 241.129 202.709 234.185 194.752 226.655 C 176.02 208.93 153.256 199.502 128.815 193.091 C 118.538 190.396 108.28 187.487 98.298 183.884 C 94.602 182.549 91.726 178.947 88.475 176.379 C 91.244 173.47 93.755 170.236 96.864 167.752 C 99.414 165.714 102.676 164.568 105.947 162.841 M 181.869 156.14 C 170.525 156.562 162.957 164.256 163.209 175.107 C 163.436 184.873 172.097 193.054 182.243 193.086 C 192.556 193.118 201.301 184.724 201.414 174.684 C 201.531 164.231 193.828 156.574 181.869 156.14 M 154.932 177.011 C 158.178 167.416 154.818 159.74 146.177 157.013 C 138.176 154.488 130.216 158.805 127.843 166.957 C 125.937 173.503 129.213 180.54 135.549 183.509 C 142.596 186.81 149.562 184.674 154.932 177.011 M 220.948 210.062 C 221.32 208.79 221.922 207.536 222.024 206.243 C 222.441 200.963 220.911 196.344 216.538 193.117 C 212.539 190.166 208.106 189.402 203.414 191.523 C 197.844 194.04 194.821 199.295 195.293 205.605 C 195.734 211.506 199.784 216.559 205.204 217.971 C 211.208 219.536 216.432 217.084 220.948 210.062 M 223.18 225.786 C 217.33 225.357 213.305 228.031 212.491 232.886 C 211.735 237.391 214.762 241.634 219.541 242.767 C 223.82 243.782 228.273 241.24 229.744 236.942 C 231.281 232.456 229.155 228.476 223.18 225.786 M 115.79 182.49 C 119.917 180.61 122.419 177.21 121.03 172.984 C 120.154 170.316 117.338 167.566 114.704 166.378 C 111.414 164.894 107.227 165.94 105.715 169.529 C 104.57 172.244 104.316 176.121 105.384 178.795 C 106.93 182.664 110.871 183.76 115.79 182.49 Z"/>
  <path fill="#D6943C" opacity="1.000000" stroke="none" d="M 318.358 92.23 C 312.906 82.285 307.284 72.83 302.503 62.968 C 300.945 59.756 301.581 55.482 301.214 51.693 C 304.715 51.547 308.432 50.56 311.681 51.394 C 332 56.61 350.728 65.736 368.316 76.886 C 376.325 81.963 383.693 88.582 389.981 95.711 C 398.412 105.271 400.248 117.105 397.009 129.492 C 390.714 153.56 378 174.008 361.196 192.052 C 357.555 195.961 353.293 200.299 347.412 197.852 C 341.89 195.554 340.868 189.65 340.408 184.339 C 339.348 172.092 338.688 159.809 337.942 147.536 C 336.716 127.348 328.368 109.692 318.358 92.23 M 374.125 134.352 C 375.95 134.328 377.791 134.451 379.598 134.254 C 388.693 133.264 395.142 123.897 392.548 115.541 C 390.264 108.186 382.26 103.331 374.112 104.357 C 365.924 105.388 359.758 111.397 359.338 118.755 C 358.912 126.212 364.417 132.359 374.125 134.352 M 343.22 101.243 C 353.165 104.264 362.558 99.616 363.365 91.274 C 364.001 84.705 359.931 79.358 352.971 77.618 C 346.053 75.888 338.165 79.389 335.756 85.258 C 333.259 91.337 335.607 96.806 343.22 101.243 M 369.997 162.884 C 375.604 161.331 379.525 158.076 380.078 151.995 C 380.465 147.726 376.625 142.503 371.601 141.605 C 367.562 140.883 363.029 141.037 359.092 142.144 C 355.029 143.286 352.214 146.552 352.024 151.384 C 351.826 156.378 354.212 159.914 358.559 161.505 C 361.852 162.711 365.625 162.608 369.997 162.884 M 363.051 185.16 C 363.544 182.952 364.531 180.721 364.426 178.543 C 364.211 174.106 360.454 171.234 355.391 171.04 C 349.62 170.819 345.763 173.65 344.87 178.764 C 344.161 182.826 346.706 186.72 351.067 188.332 C 355.457 189.955 359.214 188.887 363.051 185.16 M 324.153 60.457 C 318.576 62.476 316.516 65.252 317.139 70.215 C 317.654 74.315 319.974 76.849 324.16 77.33 C 329.072 77.894 332.935 75.058 333.526 70.608 C 334.307 64.722 331.585 61.487 324.153 60.457 Z"/>
  <path fill="#D6943C" opacity="1.000000" stroke="none" d="M 423.812 224.797 C 410.766 227.432 398.121 230.217 385.348 232.147 C 382.276 232.611 376.488 230.862 375.989 229.031 C 375.175 226.042 377.013 221.709 378.958 218.748 C 381.383 215.056 384.8 211.881 388.225 209.003 C 408.785 191.733 421.498 169.501 429.911 144.389 C 431.75 138.899 434.187 133.527 437.011 128.47 C 440.358 122.478 444.092 122.571 446.992 128.746 C 455.868 147.649 461.503 167.414 460.203 188.519 C 459.468 200.445 453.401 209.732 443.093 215.712 C 437.083 219.199 430.495 221.692 423.812 224.797 M 435.073 208.09 C 435.999 207.728 436.959 207.433 437.847 206.994 C 445.162 203.37 448.632 195.718 446.314 188.385 C 443.726 180.198 435.947 175.732 427.055 177.328 C 419.541 178.677 414.02 185.612 414.254 193.409 C 414.553 203.357 421.886 208.791 435.073 208.09 M 406.322 225.022 C 408.685 223.868 411.386 223.118 413.341 221.479 C 417.752 217.781 417.852 210.822 413.937 207.323 C 410.143 203.933 403.804 203.564 399.016 206.455 C 394.833 208.98 392.583 213.831 393.713 217.884 C 394.968 222.382 399.122 224.923 406.322 225.022 M 448.533 152.679 C 446.103 151.174 443.845 149.041 441.201 148.316 C 437.564 147.32 434.337 149.028 432.372 152.363 C 429.716 156.873 429.79 161.443 432.405 166.015 C 434.838 170.268 438.518 172.099 443.223 171.205 C 447.402 170.41 450.023 167.331 450.335 163.299 C 450.589 160.022 449.475 156.64 448.533 152.679 Z"/>
  <path fill="#D6943C" opacity="1.000000" stroke="none" d="M 468.966 309.048 C 478.493 304.144 487.669 299.389 496.846 294.633 C 497.253 295.071 497.66 295.508 498.068 295.945 C 496.985 298.225 496.284 300.807 494.759 302.739 C 482.617 318.119 470.705 333.709 457.923 348.545 C 450.211 357.496 444.991 357.448 437.395 348.315 C 426.795 335.569 417.285 321.914 407.347 308.621 C 406.662 307.704 405.999 306.596 405.841 305.502 C 405.619 303.968 405.88 302.363 405.934 300.788 C 407.347 300.89 408.923 300.619 410.146 301.155 C 416.38 303.888 422.508 306.861 428.701 309.691 C 442.075 315.803 455.388 315.668 468.966 309.048 M 457.079 331.212 C 455.889 326.659 454.054 322.668 448.637 322.034 C 442.95 321.369 438.2 325.027 437.219 330.75 C 435.987 337.943 439.109 344.032 444.595 345.136 C 450.095 346.244 455.133 342.425 456.655 335.921 C 456.954 334.645 457.002 333.311 457.079 331.212 M 473.965 325.297 C 474.606 323.96 475.487 322.684 475.843 321.275 C 476.845 317.318 475.878 313.784 472.092 311.934 C 468.638 310.245 466.015 312.35 464.038 315.066 C 461.47 318.591 461.711 323.99 464.647 326.565 C 467.691 329.235 470.715 328.737 473.965 325.297 M 431.29 325.43 C 433.24 321.67 432.873 318.027 430.498 314.638 C 428.05 311.144 423.883 310.51 421.027 313.031 C 417.994 315.709 417.938 321.614 420.911 325.303 C 423.626 328.673 426.655 328.912 431.29 325.43 Z"/>
  <path fill="#D6943C" opacity="1.000000" stroke="none" d="M 470.838 254.772 C 464.04 263.419 457.581 271.88 450.826 280.097 C 446.135 285.802 439.741 286.694 433.092 284.565 C 418.589 279.921 405.134 273.041 392.512 264.537 C 391.42 263.801 390.425 262.862 389.553 261.869 C 387.471 259.494 387.638 257.66 391.062 256.964 C 392.522 256.668 394.04 256.293 395.497 256.406 C 425.105 258.688 449.688 247.344 471.673 228.65 C 476.482 224.561 481.703 220.943 486.861 217.285 C 488.494 216.126 490.537 215.543 493.037 215.315 C 488.494 230.089 479.25 241.997 470.838 254.772 M 450.937 259.537 C 446.024 253.457 441.529 251.737 435.375 253.584 C 430.73 254.979 426.907 259.616 426.359 264.523 C 425.7 270.415 428.275 275.692 433.151 278.445 C 437.998 281.18 443.853 280.643 448.049 277.079 C 452.814 273.031 453.89 267.474 450.937 259.537 M 465.92 254.053 C 466.384 252.156 467.218 250.263 467.239 248.361 C 467.292 243.448 464.031 240.444 459.865 241.311 C 455.864 242.144 453.675 245.298 453.766 248.772 C 453.841 251.634 455.347 255.225 457.459 257.081 C 460.351 259.622 463.257 257.182 465.92 254.053 M 421.231 270.596 C 422.992 265.073 420.871 260.744 415.458 258.813 C 411.595 257.435 408.045 258.85 406.749 262.285 C 405.289 266.154 408.108 271.592 412.944 272.663 C 415.335 273.192 418.156 271.779 421.231 270.596 Z"/>
  <path fill="#D6943C" opacity="1.000000" stroke="none" d="M 454.126 396.076 C 440.864 400.97 428.054 406.027 415.002 410.357 C 407.787 412.751 404.462 410.896 403.915 403.536 C 402.858 389.326 402.909 375.033 402.56 360.772 C 402.537 359.814 402.862 358.763 403.306 357.899 C 403.792 356.952 404.526 355.579 405.293 355.481 C 406.09 355.378 407.369 356.384 407.891 357.239 C 409.965 360.638 411.948 364.105 413.742 367.659 C 420.748 381.54 432.493 387.154 447.482 387.23 C 451.638 387.251 455.797 387.239 459.95 387.377 C 461.691 387.435 463.42 387.843 465.155 388.092 C 465.354 388.63 465.553 389.168 465.752 389.705 C 461.994 391.782 458.236 393.859 454.126 396.076 M 409.393 389.988 C 404.727 397.815 407.346 406.317 414.753 407.385 C 419.609 408.085 423.753 405.85 425.703 401.477 C 427.719 396.959 426.514 391.192 422.948 388.296 C 419.191 385.245 415.132 385.579 409.393 389.988 M 442.711 398.322 C 447.002 393.93 447.178 390.55 443.001 388.849 C 439.173 387.29 435.596 388.482 433.243 391.662 C 432.196 393.079 431.605 396.012 432.374 397.364 C 434.346 400.829 437.813 400.546 441.172 399.162 C 441.479 399.036 441.773 398.881 442.711 398.322 M 404.238 371.764 C 402.263 376.018 402.862 379.852 406.412 382.949 C 408.835 385.061 412.152 384.96 413.044 382.093 C 413.953 379.174 413.623 375.299 412.413 372.446 C 411.081 369.305 407.763 369.2 404.238 371.764 Z"/>
  <path fill="#00578B" opacity="1.000000" stroke="none" d="M 179.325 99.262 C 179.129 97.836 178.987 96.381 178.707 94.953 C 177.345 87.99 182.314 81.432 189.731 80.448 C 196.252 79.583 202.974 84.939 203.424 91.357 C 203.956 98.967 199.26 104.294 191.765 104.492 C 189.942 104.541 188.112 104.344 185.835 104.273 C 183.782 103.122 182.18 101.956 180.374 100.209 C 179.873 99.495 179.577 99.363 179.281 99.23 C 179.281 99.23 179.316 99.246 179.325 99.262 Z"/>
  <path fill="#D6943C" opacity="1.000000" stroke="none" d="M 376.505 448.513 C 376.402 439.187 375.381 430.201 378.528 421.044 C 382.778 427.011 385.708 433.863 390.885 437.622 C 396.069 441.387 403.496 442.062 410.752 444.348 C 409.14 445.158 407.899 446.095 406.514 446.426 C 398.605 448.314 390.704 450.309 382.698 451.663 C 380.866 451.973 378.632 449.91 376.505 448.513 M 377.29 443.75 C 378.495 448.688 381.23 450.914 384.957 449.856 C 388.242 448.924 390.419 446.543 389.361 443.303 C 388.632 441.072 386.379 438.311 384.299 437.78 C 380.813 436.891 378.036 439.033 377.29 443.75 Z"/>
  <path fill="#000000" opacity="1.000000" stroke="none" d="M 205.447 371.488 C 203.339 368.721 201.615 366.022 199.874 362.941 C 201.72 355.98 206.682 352.827 211.709 355.03 C 216.148 356.974 218.41 361.732 216.927 366.003 C 215.337 370.582 211.154 372.675 205.447 371.488 Z"/>
  <path fill="#000000" opacity="1.000000" stroke="none" d="M 120.15 428.05 C 125.818 427.699 128.762 430.55 130.397 435.614 C 130.051 440.541 127.725 443.789 123.242 445.061 C 118.837 446.31 113.579 442.849 112.512 438.293 C 111.524 434.074 114.657 429.688 120.15 428.05 Z"/>
  <path fill="#000000" opacity="1.000000" stroke="none" d="M 350.7 219.64 C 350.654 219.243 350.773 219 350.892 218.757 C 350.995 218.866 351.202 219 351.183 219.08 C 351.123 219.329 350.977 219.558 350.7 219.64 Z"/>
  <path fill="#D6943C" opacity="1.000000" stroke="none" d="M 179.331 99.492 C 179.577 99.363 179.873 99.495 180.231 99.91 C 179.989 100.046 179.685 99.9 179.331 99.492 Z"/>
  <path fill="#00578B" opacity="1.000000" stroke="none" d="M 148.181 263.043 C 141.075 269.827 133.776 270.861 126.781 266.325 C 120.117 262.003 117.32 253.527 119.97 245.682 C 122.564 238.001 128.981 233.655 137.225 234.297 C 143.37 234.775 147.803 238.089 150.415 243.588 C 153.61 250.313 153.068 256.785 148.181 263.043 Z"/>
  <path fill="#00578B" opacity="1.000000" stroke="none" d="M 113.027 268.783 C 107.657 273.605 103.19 274.398 98.334 271.661 C 93.601 268.994 91.158 263.141 92.409 257.469 C 93.94 250.529 100.993 246.402 107.695 248.523 C 114.169 250.572 117.604 258.937 114.79 265.911 C 114.422 266.823 113.774 267.622 113.027 268.783 Z"/>
  <path fill="#00578B" opacity="1.000000" stroke="none" d="M 177.507 255.546 C 179.664 263.504 177.351 269.033 171.356 271.039 C 165.683 272.936 159.463 270.297 157.145 265.009 C 154.853 259.782 156.622 254.045 161.427 251.122 C 167.055 247.699 172.736 249.15 177.507 255.546 Z"/>
  <path fill="#00578B" opacity="1.000000" stroke="none" d="M 194.355 281.161 C 192.288 285.595 189.036 287.569 184.583 286.806 C 179.527 285.939 176.454 281.3 177.418 276.537 C 178.321 272.073 183.133 268.784 187.519 269.633 C 192.854 270.665 195.469 274.87 194.355 281.161 Z"/>
  <path fill="#00578B" opacity="1.000000" stroke="none" d="M 78.871 285.914 C 74.08 281.736 73.02 278.007 75.449 274.038 C 77.665 270.416 80.969 268.815 85.18 269.882 C 90.208 271.156 92.786 275.689 91.45 280.556 C 90 285.838 85.414 287.912 78.871 285.914 Z"/>
  <path fill="#00578B" opacity="1.000000" stroke="none" d="M 251.038 126.378 C 248.672 112.524 261.428 102.977 270.454 102.119 C 283.218 100.906 291.597 106.11 293.769 116.968 C 294.936 122.803 292.917 127.901 289.28 132.182 C 283.266 139.259 275.457 142.393 266.184 140.697 C 258.347 139.264 252.939 134.874 251.038 126.378 Z"/>
  <path fill="#00578B" opacity="1.000000" stroke="none" d="M 221.267 91.862 C 227.059 89.284 232.657 89.039 238.012 91.601 C 243.137 94.054 246.245 98.218 246.423 104.176 C 246.607 110.347 243.615 114.638 238.408 117.507 C 232.24 120.905 223.759 119.898 218.297 115.266 C 213.873 111.514 211.896 105.152 214.423 99.944 C 215.867 96.968 218.724 94.678 221.267 91.862 Z"/>
  <path fill="#00578B" opacity="1.000000" stroke="none" d="M 270.462 154.796 C 274.689 148.34 280.153 145.963 286.793 147.407 C 292.183 148.579 296.679 153.428 297.312 158.749 C 298.021 164.715 295.467 169.683 290.286 172.416 C 284.62 175.404 278.377 174.747 273.525 170.652 C 269.247 167.041 268.131 161.688 270.462 154.796 Z"/>
  <path fill="#00578B" opacity="1.000000" stroke="none" d="M 292.056 196.835 C 288.484 201.239 284.192 202.324 279.345 200.558 C 275.258 199.069 272.837 195.857 272.523 191.543 C 272.2 187.109 273.874 183.413 277.956 181.135 C 281.648 179.075 287.501 179.702 290.559 182.467 C 294.354 185.898 294.953 190.839 292.056 196.835 Z"/>
  <path fill="#00578B" opacity="1.000000" stroke="none" d="M 182.313 156.14 C 193.828 156.574 201.531 164.231 201.414 174.684 C 201.301 184.724 192.556 193.118 182.243 193.086 C 172.097 193.054 163.436 184.873 163.209 175.107 C 162.957 164.256 170.525 156.562 182.313 156.14 Z"/>
  <path fill="#00578B" opacity="1.000000" stroke="none" d="M 154.738 177.347 C 149.562 184.674 142.596 186.81 135.549 183.509 C 129.213 180.54 125.937 173.503 127.843 166.957 C 130.216 158.805 138.176 154.488 146.177 157.013 C 154.818 159.74 158.178 167.416 154.738 177.347 Z"/>
  <path fill="#00578B" opacity="1.000000" stroke="none" d="M 220.773 210.403 C 216.432 217.084 211.208 219.536 205.204 217.971 C 199.784 216.559 195.734 211.506 195.293 205.605 C 194.821 199.295 197.844 194.04 203.414 191.523 C 208.106 189.402 212.539 190.166 216.538 193.117 C 220.911 196.344 222.441 200.963 222.024 206.243 C 221.922 207.536 221.32 208.79 220.773 210.403 Z"/>
  <path fill="#00578B" opacity="1.000000" stroke="none" d="M 223.546 225.905 C 229.155 228.476 231.281 232.456 229.744 236.942 C 228.273 241.24 223.82 243.782 219.541 242.767 C 214.762 241.634 211.735 237.391 212.491 232.886 C 213.305 228.031 217.33 225.357 223.546 225.905 Z"/>
  <path fill="#00578B" opacity="1.000000" stroke="none" d="M 115.431 182.631 C 110.871 183.76 106.93 182.664 105.384 178.795 C 104.316 176.121 104.57 172.244 105.715 169.529 C 107.227 165.94 111.414 164.894 114.704 166.378 C 117.338 167.566 120.154 170.316 121.03 172.984 C 122.419 177.21 119.917 180.61 115.431 182.631 Z"/>
  <path fill="#00578B" opacity="1.000000" stroke="none" d="M 373.692 134.326 C 364.417 132.359 358.912 126.212 359.338 118.755 C 359.758 111.397 365.924 105.388 374.112 104.357 C 382.26 103.331 390.264 108.186 392.548 115.541 C 395.142 123.897 388.693 133.264 379.598 134.254 C 377.791 134.451 375.95 134.328 373.692 134.326 Z"/>
  <path fill="#00578B" opacity="1.000000" stroke="none" d="M 342.855 101.093 C 335.607 96.806 333.259 91.337 335.756 85.258 C 338.165 79.389 346.053 75.888 352.971 77.618 C 359.931 79.358 364.001 84.705 363.365 91.274 C 362.558 99.616 353.165 104.264 342.855 101.093 Z"/>
  <path fill="#00578B" opacity="1.000000" stroke="none" d="M 369.591 162.986 C 365.625 162.608 361.852 162.711 358.559 161.505 C 354.212 159.914 351.826 156.378 352.024 151.384 C 352.214 146.552 355.029 143.286 359.092 142.144 C 363.029 141.037 367.562 140.883 371.601 141.605 C 376.625 142.503 380.465 147.726 380.078 151.995 C 379.525 158.076 375.604 161.331 369.591 162.986 Z"/>
  <path fill="#00578B" opacity="1.000000" stroke="none" d="M 362.785 185.455 C 359.214 188.887 355.457 189.955 351.067 188.332 C 346.706 186.72 344.161 182.826 344.87 178.764 C 345.763 173.65 349.62 170.819 355.391 171.04 C 360.454 171.234 364.211 174.106 364.426 178.543 C 364.531 180.721 363.544 182.952 362.785 185.455 Z"/>
  <path fill="#00578B" opacity="1.000000" stroke="none" d="M 324.543 60.426 C 331.585 61.487 334.307 64.722 333.526 70.608 C 332.935 75.058 329.072 77.894 324.16 77.33 C 319.974 76.849 317.654 74.315 317.139 70.215 C 316.516 65.252 318.576 62.476 324.543 60.426 Z"/>
  <path fill="#00578B" opacity="1.000000" stroke="none" d="M 434.655 208.155 C 421.886 208.791 414.553 203.357 414.254 193.409 C 414.02 185.612 419.541 178.677 427.055 177.328 C 435.947 175.732 443.726 180.198 446.314 188.385 C 448.632 195.718 445.162 203.37 437.847 206.994 C 436.959 207.433 435.999 207.728 434.655 208.155 Z"/>
  <path fill="#00578B" opacity="1.000000" stroke="none" d="M 405.923 225.065 C 399.122 224.923 394.968 222.382 393.713 217.884 C 392.583 213.831 394.833 208.98 399.016 206.455 C 403.804 203.564 410.143 203.933 413.937 207.323 C 417.852 210.822 417.752 217.781 413.341 221.479 C 411.386 223.118 408.685 223.868 405.923 225.065 Z"/>
  <path fill="#00578B" opacity="1.000000" stroke="none" d="M 448.75 152.992 C 449.475 156.64 450.589 160.022 450.335 163.299 C 450.023 167.331 447.402 170.41 443.223 171.205 C 438.518 172.099 434.838 170.268 432.405 166.015 C 429.79 161.443 429.716 156.873 432.372 152.363 C 434.337 149.028 437.564 147.32 441.201 148.316 C 443.845 149.041 446.103 151.174 448.75 152.992 Z"/>
  <path fill="#00578B" opacity="1.000000" stroke="none" d="M 457.122 331.608 C 457.002 333.311 456.954 334.645 456.655 335.921 C 455.133 342.425 450.095 346.244 444.595 345.136 C 439.109 344.032 435.987 337.943 437.219 330.75 C 438.2 325.027 442.95 321.369 448.637 322.034 C 454.054 322.668 455.889 326.659 457.122 331.608 Z"/>
  <path fill="#00578B" opacity="1.000000" stroke="none" d="M 473.7 325.58 C 470.715 328.737 467.691 329.235 464.647 326.565 C 461.711 323.99 461.47 318.591 464.038 315.066 C 466.015 312.35 468.638 310.245 472.092 311.934 C 475.878 313.784 476.845 317.318 475.843 321.275 C 475.487 322.684 474.606 323.96 473.7 325.58 Z"/>
  <path fill="#00578B" opacity="1.000000" stroke="none" d="M 431.059 325.757 C 426.655 328.912 423.626 328.673 420.911 325.303 C 417.938 321.614 417.994 315.709 421.027 313.031 C 423.883 310.51 428.05 311.144 430.498 314.638 C 432.873 318.027 433.24 321.67 431.059 325.757 Z"/>
  <path fill="#00578B" opacity="1.000000" stroke="none" d="M 451.123 259.888 C 453.89 267.474 452.814 273.031 448.049 277.079 C 443.853 280.643 437.998 281.18 433.151 278.445 C 428.275 275.692 425.7 270.415 426.359 264.523 C 426.907 259.616 430.73 254.979 435.375 253.584 C 441.529 251.737 446.024 253.457 451.123 259.888 Z"/>
  <path fill="#00578B" opacity="1.000000" stroke="none" d="M 465.688 254.363 C 463.257 257.182 460.351 259.622 457.459 257.081 C 455.347 255.225 453.841 251.634 453.766 248.772 C 453.675 245.298 455.864 242.144 459.865 241.311 C 464.031 240.444 467.292 243.448 467.239 248.361 C 467.218 250.263 466.384 252.156 465.688 254.363 Z"/>
  <path fill="#00578B" opacity="1.000000" stroke="none" d="M 421.006 270.92 C 418.156 271.779 415.335 273.192 412.944 272.663 C 408.108 271.592 405.289 266.154 406.749 262.285 C 408.045 258.85 411.595 257.435 415.458 258.813 C 420.871 260.744 422.992 265.073 421.006 270.92 Z"/>
  <path fill="#00578B" opacity="1.000000" stroke="none" d="M 409.635 389.68 C 415.132 385.579 419.191 385.245 422.948 388.296 C 426.514 391.192 427.719 396.959 425.703 401.477 C 423.753 405.85 419.609 408.085 414.753 407.385 C 407.346 406.317 404.727 397.815 409.635 389.68 Z"/>
  <path fill="#00578B" opacity="1.000000" stroke="none" d="M 442.392 398.531 C 441.773 398.881 441.479 399.036 441.172 399.162 C 437.813 400.546 434.346 400.829 432.374 397.364 C 431.605 396.012 432.196 393.079 433.243 391.662 C 435.596 388.482 439.173 387.29 443.001 388.849 C 447.178 390.55 447.002 393.93 442.392 398.531 Z"/>
  <path fill="#00578B" opacity="1.000000" stroke="none" d="M 404.512 371.449 C 407.763 369.2 411.081 369.305 412.413 372.446 C 413.623 375.299 413.953 379.174 413.044 382.093 C 412.152 384.96 408.835 385.061 406.412 382.949 C 402.862 379.852 402.263 376.018 404.512 371.449 Z"/>
  <path fill="#00578B" opacity="1.000000" stroke="none" d="M 377.31 443.358 C 378.036 439.033 380.813 436.891 384.299 437.78 C 386.379 438.311 388.632 441.072 389.361 443.303 C 390.419 446.543 388.242 448.924 384.957 449.856 C 381.23 450.914 378.495 448.688 377.31 443.358 Z"/>
</svg>